<mxfile host="app.diagrams.net" modified="2023-06-19T18:50:12.681Z" agent="5.0 (Windows NT 10.0; Win64; x64) AppleWebKit/537.36 (KHTML, like Gecko) Chrome/114.0.0.0 Safari/537.36" etag="2PlZ5Ux6WJEoBXXfC09z" version="20.6.2" type="github">
  <diagram id="C5RBs43oDa-KdzZeNtuy" name="Page-1">
    <mxGraphModel dx="1808" dy="2861" grid="1" gridSize="10" guides="1" tooltips="1" connect="1" arrows="1" fold="1" page="1" pageScale="1" pageWidth="827" pageHeight="1169" math="0" shadow="0">
      <root>
        <mxCell id="WIyWlLk6GJQsqaUBKTNV-0" />
        <mxCell id="WIyWlLk6GJQsqaUBKTNV-1" parent="WIyWlLk6GJQsqaUBKTNV-0" />
        <mxCell id="Ey1h-VCYFiWWdj6kb1TC-207" value="" style="shape=partialRectangle;whiteSpace=wrap;html=1;top=0;left=0;fillColor=none;labelBackgroundColor=none;strokeWidth=4;fontSize=48;" vertex="1" parent="WIyWlLk6GJQsqaUBKTNV-1">
          <mxGeometry x="-465" y="-1550" width="3170" height="1450" as="geometry" />
        </mxCell>
        <mxCell id="Ey1h-VCYFiWWdj6kb1TC-206" value="" style="shape=partialRectangle;whiteSpace=wrap;html=1;bottom=0;right=0;fillColor=none;labelBackgroundColor=none;fontSize=48;strokeWidth=4;" vertex="1" parent="WIyWlLk6GJQsqaUBKTNV-1">
          <mxGeometry x="-460" y="-1560" width="3160" height="1450" as="geometry" />
        </mxCell>
        <mxCell id="Ey1h-VCYFiWWdj6kb1TC-13" value="Relatório Mensal de Ativo" style="swimlane;childLayout=stackLayout;horizontal=1;startSize=30;horizontalStack=0;rounded=1;fontSize=14;fontStyle=0;strokeWidth=2;resizeParent=0;resizeLast=1;shadow=0;dashed=0;align=center;" vertex="1" parent="WIyWlLk6GJQsqaUBKTNV-1">
          <mxGeometry x="-187" y="-1830" width="220" height="160" as="geometry" />
        </mxCell>
        <mxCell id="Ey1h-VCYFiWWdj6kb1TC-14" value="Ativo&#xa;Mês - Data&#xa;RelatórioDefinitivo - V/F&#xa;TodosDadosImportados - V/F&#xa;FoiCalculado - V/F&#xa;RelatorioPreviewEnviado - V/F&#xa;RelatorioDefinitivoEnviado - V/F&#xa;&#xa;" style="align=left;strokeColor=none;fillColor=none;spacingLeft=4;fontSize=12;verticalAlign=top;resizable=0;rotatable=0;part=1;" vertex="1" parent="Ey1h-VCYFiWWdj6kb1TC-13">
          <mxGeometry y="30" width="220" height="130" as="geometry" />
        </mxCell>
        <mxCell id="Ey1h-VCYFiWWdj6kb1TC-15" value="Relatório Mensal de Agente" style="swimlane;childLayout=stackLayout;horizontal=1;startSize=30;horizontalStack=0;rounded=1;fontSize=14;fontStyle=0;strokeWidth=2;resizeParent=0;resizeLast=1;shadow=0;dashed=0;align=center;" vertex="1" parent="WIyWlLk6GJQsqaUBKTNV-1">
          <mxGeometry x="93" y="-1830" width="220" height="160" as="geometry" />
        </mxCell>
        <mxCell id="Ey1h-VCYFiWWdj6kb1TC-16" value="Ativo&#xa;Mês - Data&#xa;RelatórioDefinitivo - V/F&#xa;TodosDadosImportados - V/F&#xa;FoiCalculado - V/F&#xa;RelatorioPreviewEnviado - V/F&#xa;RelatorioDefinitivoEnviado - V/F&#xa;&#xa;" style="align=left;strokeColor=none;fillColor=none;spacingLeft=4;fontSize=12;verticalAlign=top;resizable=0;rotatable=0;part=1;" vertex="1" parent="Ey1h-VCYFiWWdj6kb1TC-15">
          <mxGeometry y="30" width="220" height="130" as="geometry" />
        </mxCell>
        <mxCell id="Ey1h-VCYFiWWdj6kb1TC-17" value="Relatório Mensal de Grupo" style="swimlane;childLayout=stackLayout;horizontal=1;startSize=30;horizontalStack=0;rounded=1;fontSize=14;fontStyle=0;strokeWidth=2;resizeParent=0;resizeLast=1;shadow=0;dashed=0;align=center;" vertex="1" parent="WIyWlLk6GJQsqaUBKTNV-1">
          <mxGeometry x="377" y="-1830" width="220" height="160" as="geometry" />
        </mxCell>
        <mxCell id="Ey1h-VCYFiWWdj6kb1TC-18" value="Ativo&#xa;Mês - Data&#xa;RelatórioDefinitivo - V/F&#xa;TodosDadosImportados - V/F&#xa;FoiCalculado - V/F&#xa;RelatorioPreviewEnviado - V/F&#xa;RelatorioDefinitivoEnviado - V/F&#xa;&#xa;" style="align=left;strokeColor=none;fillColor=none;spacingLeft=4;fontSize=12;verticalAlign=top;resizable=0;rotatable=0;part=1;" vertex="1" parent="Ey1h-VCYFiWWdj6kb1TC-17">
          <mxGeometry y="30" width="220" height="130" as="geometry" />
        </mxCell>
        <mxCell id="Ey1h-VCYFiWWdj6kb1TC-24" value="" style="edgeStyle=orthogonalEdgeStyle;rounded=0;orthogonalLoop=1;jettySize=auto;html=1;" edge="1" parent="WIyWlLk6GJQsqaUBKTNV-1" source="Ey1h-VCYFiWWdj6kb1TC-20" target="Ey1h-VCYFiWWdj6kb1TC-23">
          <mxGeometry relative="1" as="geometry" />
        </mxCell>
        <mxCell id="Ey1h-VCYFiWWdj6kb1TC-20" value="Importação completa de ativo &lt;br&gt;sem cálculos corretos" style="points=[[0.145,0.145,0],[0.5,0,0],[0.855,0.145,0],[1,0.5,0],[0.855,0.855,0],[0.5,1,0],[0.145,0.855,0],[0,0.5,0]];shape=mxgraph.bpmn.event;html=1;verticalLabelPosition=bottom;labelBackgroundColor=#ffffff;verticalAlign=top;align=center;perimeter=ellipsePerimeter;outlineConnect=0;aspect=fixed;outline=throwing;symbol=general;fillColor=#d5e8d4;strokeColor=#82b366;" vertex="1" parent="WIyWlLk6GJQsqaUBKTNV-1">
          <mxGeometry x="-50" y="-609" width="50" height="50" as="geometry" />
        </mxCell>
        <mxCell id="Ey1h-VCYFiWWdj6kb1TC-32" value="" style="edgeStyle=orthogonalEdgeStyle;rounded=0;orthogonalLoop=1;jettySize=auto;html=1;" edge="1" parent="WIyWlLk6GJQsqaUBKTNV-1" source="Ey1h-VCYFiWWdj6kb1TC-23" target="Ey1h-VCYFiWWdj6kb1TC-31">
          <mxGeometry relative="1" as="geometry" />
        </mxCell>
        <mxCell id="Ey1h-VCYFiWWdj6kb1TC-23" value="Criação de um relatório Definitivo, com todos os dados importados, importado sem nenhum envio" style="whiteSpace=wrap;html=1;verticalAlign=top;labelBackgroundColor=none;fillColor=#f5f5f5;fontColor=#333333;strokeColor=#666666;" vertex="1" parent="WIyWlLk6GJQsqaUBKTNV-1">
          <mxGeometry x="180" y="-631" width="140" height="94" as="geometry" />
        </mxCell>
        <mxCell id="Ey1h-VCYFiWWdj6kb1TC-25" value="Ativo" style="swimlane;childLayout=stackLayout;horizontal=1;startSize=30;horizontalStack=0;rounded=1;fontSize=14;fontStyle=0;strokeWidth=2;resizeParent=0;resizeLast=1;shadow=0;dashed=0;align=center;" vertex="1" parent="WIyWlLk6GJQsqaUBKTNV-1">
          <mxGeometry x="-447" y="-1830" width="220" height="160" as="geometry" />
        </mxCell>
        <mxCell id="Ey1h-VCYFiWWdj6kb1TC-26" value="Nome&#xa;PossuiCalculosCorretos - V/F&#xa;&#xa;" style="align=left;strokeColor=none;fillColor=none;spacingLeft=4;fontSize=12;verticalAlign=top;resizable=0;rotatable=0;part=1;" vertex="1" parent="Ey1h-VCYFiWWdj6kb1TC-25">
          <mxGeometry y="30" width="220" height="130" as="geometry" />
        </mxCell>
        <mxCell id="Ey1h-VCYFiWWdj6kb1TC-30" value="&lt;h1&gt;Cards na página de Relatórios&lt;/h1&gt;&lt;p&gt;Esses cards são uma representação visual de relatórios que existem no sistema ou de relatórios que podem ser gerados pelo sistema e ainda não foram.&lt;/p&gt;" style="text;html=1;strokeColor=none;fillColor=none;spacing=5;spacingTop=-20;whiteSpace=wrap;overflow=hidden;rounded=0;" vertex="1" parent="WIyWlLk6GJQsqaUBKTNV-1">
          <mxGeometry x="-450" y="-2000" width="280" height="120" as="geometry" />
        </mxCell>
        <mxCell id="Ey1h-VCYFiWWdj6kb1TC-43" style="edgeStyle=orthogonalEdgeStyle;rounded=0;orthogonalLoop=1;jettySize=auto;html=1;entryX=0;entryY=0.5;entryDx=0;entryDy=0;entryPerimeter=0;" edge="1" parent="WIyWlLk6GJQsqaUBKTNV-1" source="Ey1h-VCYFiWWdj6kb1TC-31" target="Ey1h-VCYFiWWdj6kb1TC-42">
          <mxGeometry relative="1" as="geometry" />
        </mxCell>
        <mxCell id="Ey1h-VCYFiWWdj6kb1TC-48" value="Botões clicados" style="edgeLabel;html=1;align=center;verticalAlign=middle;resizable=0;points=[];" vertex="1" connectable="0" parent="Ey1h-VCYFiWWdj6kb1TC-43">
          <mxGeometry x="-0.2941" y="-5" relative="1" as="geometry">
            <mxPoint x="4" y="10" as="offset" />
          </mxGeometry>
        </mxCell>
        <mxCell id="Ey1h-VCYFiWWdj6kb1TC-47" value="" style="edgeStyle=orthogonalEdgeStyle;rounded=0;orthogonalLoop=1;jettySize=auto;html=1;dashed=1;" edge="1" parent="WIyWlLk6GJQsqaUBKTNV-1" source="Ey1h-VCYFiWWdj6kb1TC-31" target="Ey1h-VCYFiWWdj6kb1TC-46">
          <mxGeometry relative="1" as="geometry">
            <Array as="points">
              <mxPoint x="550" y="-907" />
              <mxPoint x="630" y="-907" />
            </Array>
          </mxGeometry>
        </mxCell>
        <mxCell id="Ey1h-VCYFiWWdj6kb1TC-31" value="Card aparecendo nas telas de relatórios de ativo" style="whiteSpace=wrap;html=1;verticalAlign=top;fillColor=#f5f5f5;strokeColor=#666666;fontColor=#333333;labelBackgroundColor=none;" vertex="1" parent="WIyWlLk6GJQsqaUBKTNV-1">
          <mxGeometry x="450" y="-835" width="120" height="60" as="geometry" />
        </mxCell>
        <mxCell id="Ey1h-VCYFiWWdj6kb1TC-35" value="" style="edgeStyle=orthogonalEdgeStyle;rounded=0;orthogonalLoop=1;jettySize=auto;html=1;" edge="1" parent="WIyWlLk6GJQsqaUBKTNV-1" source="Ey1h-VCYFiWWdj6kb1TC-33" target="Ey1h-VCYFiWWdj6kb1TC-34">
          <mxGeometry relative="1" as="geometry" />
        </mxCell>
        <mxCell id="Ey1h-VCYFiWWdj6kb1TC-33" value="Virada de mês" style="points=[[0.145,0.145,0],[0.5,0,0],[0.855,0.145,0],[1,0.5,0],[0.855,0.855,0],[0.5,1,0],[0.145,0.855,0],[0,0.5,0]];shape=mxgraph.bpmn.event;html=1;verticalLabelPosition=bottom;labelBackgroundColor=#ffffff;verticalAlign=top;align=center;perimeter=ellipsePerimeter;outlineConnect=0;aspect=fixed;outline=throwing;symbol=general;fillColor=#d5e8d4;strokeColor=#82b366;" vertex="1" parent="WIyWlLk6GJQsqaUBKTNV-1">
          <mxGeometry x="-50" y="-830" width="50" height="50" as="geometry" />
        </mxCell>
        <mxCell id="Ey1h-VCYFiWWdj6kb1TC-39" style="edgeStyle=orthogonalEdgeStyle;rounded=0;orthogonalLoop=1;jettySize=auto;html=1;entryX=0;entryY=0.5;entryDx=0;entryDy=0;entryPerimeter=0;" edge="1" parent="WIyWlLk6GJQsqaUBKTNV-1" source="Ey1h-VCYFiWWdj6kb1TC-34" target="Ey1h-VCYFiWWdj6kb1TC-31">
          <mxGeometry relative="1" as="geometry" />
        </mxCell>
        <mxCell id="Ey1h-VCYFiWWdj6kb1TC-34" value="Criação, para ativos com cálculos corretos, relatório prévio, sem dados importados" style="whiteSpace=wrap;html=1;verticalAlign=top;labelBackgroundColor=#ffffff;fillColor=#f5f5f5;fontColor=#333333;strokeColor=#666666;" vertex="1" parent="WIyWlLk6GJQsqaUBKTNV-1">
          <mxGeometry x="190" y="-847.5" width="140" height="85" as="geometry" />
        </mxCell>
        <mxCell id="Ey1h-VCYFiWWdj6kb1TC-38" value="" style="edgeStyle=orthogonalEdgeStyle;rounded=0;orthogonalLoop=1;jettySize=auto;html=1;" edge="1" parent="WIyWlLk6GJQsqaUBKTNV-1" source="Ey1h-VCYFiWWdj6kb1TC-36" target="Ey1h-VCYFiWWdj6kb1TC-37">
          <mxGeometry relative="1" as="geometry" />
        </mxCell>
        <mxCell id="Ey1h-VCYFiWWdj6kb1TC-190" style="edgeStyle=orthogonalEdgeStyle;rounded=0;orthogonalLoop=1;jettySize=auto;html=1;dashed=1;" edge="1" parent="WIyWlLk6GJQsqaUBKTNV-1" source="Ey1h-VCYFiWWdj6kb1TC-36" target="Ey1h-VCYFiWWdj6kb1TC-218">
          <mxGeometry relative="1" as="geometry">
            <mxPoint x="-25" y="-1110" as="targetPoint" />
          </mxGeometry>
        </mxCell>
        <mxCell id="Ey1h-VCYFiWWdj6kb1TC-36" value="Importação Mínima/Preview para ativos&lt;br&gt;com cálculos corretos" style="points=[[0.145,0.145,0],[0.5,0,0],[0.855,0.145,0],[1,0.5,0],[0.855,0.855,0],[0.5,1,0],[0.145,0.855,0],[0,0.5,0]];shape=mxgraph.bpmn.event;html=1;verticalLabelPosition=bottom;labelBackgroundColor=#ffffff;verticalAlign=top;align=center;perimeter=ellipsePerimeter;outlineConnect=0;aspect=fixed;outline=throwing;symbol=general;fillColor=#d5e8d4;strokeColor=#82b366;" vertex="1" parent="WIyWlLk6GJQsqaUBKTNV-1">
          <mxGeometry x="-50" y="-1000" width="50" height="50" as="geometry" />
        </mxCell>
        <mxCell id="Ey1h-VCYFiWWdj6kb1TC-40" style="edgeStyle=orthogonalEdgeStyle;rounded=0;orthogonalLoop=1;jettySize=auto;html=1;entryX=0.5;entryY=0;entryDx=0;entryDy=0;" edge="1" parent="WIyWlLk6GJQsqaUBKTNV-1" source="Ey1h-VCYFiWWdj6kb1TC-37" target="Ey1h-VCYFiWWdj6kb1TC-31">
          <mxGeometry relative="1" as="geometry" />
        </mxCell>
        <mxCell id="Ey1h-VCYFiWWdj6kb1TC-37" value="Importa dados de relatório prévio" style="whiteSpace=wrap;html=1;verticalAlign=top;fillColor=#f5f5f5;strokeColor=#666666;labelBackgroundColor=#ffffff;fontColor=#333333;" vertex="1" parent="WIyWlLk6GJQsqaUBKTNV-1">
          <mxGeometry x="200" y="-1005" width="120" height="60" as="geometry" />
        </mxCell>
        <mxCell id="Ey1h-VCYFiWWdj6kb1TC-45" value="" style="edgeStyle=orthogonalEdgeStyle;rounded=0;orthogonalLoop=1;jettySize=auto;html=1;" edge="1" parent="WIyWlLk6GJQsqaUBKTNV-1" source="Ey1h-VCYFiWWdj6kb1TC-42" target="Ey1h-VCYFiWWdj6kb1TC-51">
          <mxGeometry relative="1" as="geometry">
            <mxPoint x="1020" y="-805" as="targetPoint" />
          </mxGeometry>
        </mxCell>
        <mxCell id="Ey1h-VCYFiWWdj6kb1TC-93" value="" style="edgeStyle=orthogonalEdgeStyle;rounded=0;orthogonalLoop=1;jettySize=auto;html=1;dashed=1;" edge="1" parent="WIyWlLk6GJQsqaUBKTNV-1" source="Ey1h-VCYFiWWdj6kb1TC-42" target="Ey1h-VCYFiWWdj6kb1TC-92">
          <mxGeometry relative="1" as="geometry" />
        </mxCell>
        <mxCell id="Ey1h-VCYFiWWdj6kb1TC-42" value="" style="points=[[0.145,0.145,0],[0.5,0,0],[0.855,0.145,0],[1,0.5,0],[0.855,0.855,0],[0.5,1,0],[0.145,0.855,0],[0,0.5,0]];shape=mxgraph.bpmn.event;html=1;verticalLabelPosition=bottom;labelBackgroundColor=#ffffff;verticalAlign=top;align=center;perimeter=ellipsePerimeter;outlineConnect=0;aspect=fixed;outline=throwing;symbol=general;fillColor=#dae8fc;strokeColor=#6c8ebf;" vertex="1" parent="WIyWlLk6GJQsqaUBKTNV-1">
          <mxGeometry x="740" y="-830" width="50" height="50" as="geometry" />
        </mxCell>
        <mxCell id="Ey1h-VCYFiWWdj6kb1TC-46" value="Opções:&lt;br&gt;&lt;b&gt;Visualizar&lt;/b&gt;: Se tiver, traz relatório, se não, cálcula&lt;br&gt;&lt;b&gt;Reprocessar: &lt;/b&gt;Força o reprocessamento dele&lt;br&gt;&lt;br&gt;Para essas duas opções a forma de cálculo é o padrão do ativo, cálculo interno, se tiver cálculos corretos, ou importação, se não&lt;br&gt;&lt;br&gt;&lt;b&gt;Avançado: &lt;/b&gt;Abre tela permitindo escolher a forma de para reprocessar" style="whiteSpace=wrap;html=1;verticalAlign=top;fillColor=#ffe6cc;strokeColor=#d79b00;labelBackgroundColor=none;" vertex="1" parent="WIyWlLk6GJQsqaUBKTNV-1">
          <mxGeometry x="537" y="-1110" width="290" height="160" as="geometry" />
        </mxCell>
        <mxCell id="Ey1h-VCYFiWWdj6kb1TC-49" value="Importa dados de relatório prévio" style="whiteSpace=wrap;html=1;verticalAlign=top;fillColor=#f5f5f5;strokeColor=#666666;labelBackgroundColor=none;fontColor=#333333;" vertex="1" parent="WIyWlLk6GJQsqaUBKTNV-1">
          <mxGeometry x="200" y="-1005" width="120" height="60" as="geometry" />
        </mxCell>
        <mxCell id="Ey1h-VCYFiWWdj6kb1TC-50" value="Criação, para ativos com cálculos corretos, relatório prévio, sem dados importados" style="whiteSpace=wrap;html=1;verticalAlign=top;labelBackgroundColor=none;fillColor=#f5f5f5;fontColor=#333333;strokeColor=#666666;" vertex="1" parent="WIyWlLk6GJQsqaUBKTNV-1">
          <mxGeometry x="190" y="-847.5" width="140" height="85" as="geometry" />
        </mxCell>
        <mxCell id="Ey1h-VCYFiWWdj6kb1TC-53" value="" style="edgeStyle=orthogonalEdgeStyle;rounded=0;orthogonalLoop=1;jettySize=auto;html=1;" edge="1" parent="WIyWlLk6GJQsqaUBKTNV-1" target="Ey1h-VCYFiWWdj6kb1TC-52">
          <mxGeometry relative="1" as="geometry">
            <mxPoint x="940" y="-805" as="sourcePoint" />
            <Array as="points">
              <mxPoint x="1010" y="-805" />
            </Array>
          </mxGeometry>
        </mxCell>
        <mxCell id="Ey1h-VCYFiWWdj6kb1TC-56" value="Sim" style="edgeLabel;html=1;align=center;verticalAlign=middle;resizable=0;points=[];" vertex="1" connectable="0" parent="Ey1h-VCYFiWWdj6kb1TC-53">
          <mxGeometry x="0.1556" y="-1" relative="1" as="geometry">
            <mxPoint as="offset" />
          </mxGeometry>
        </mxCell>
        <mxCell id="Ey1h-VCYFiWWdj6kb1TC-58" value="Não" style="edgeStyle=orthogonalEdgeStyle;rounded=0;orthogonalLoop=1;jettySize=auto;html=1;" edge="1" parent="WIyWlLk6GJQsqaUBKTNV-1" source="Ey1h-VCYFiWWdj6kb1TC-51" target="Ey1h-VCYFiWWdj6kb1TC-57">
          <mxGeometry x="0.2889" y="10" relative="1" as="geometry">
            <mxPoint as="offset" />
          </mxGeometry>
        </mxCell>
        <mxCell id="Ey1h-VCYFiWWdj6kb1TC-51" value="Ativo com cálculos corretos?" style="points=[[0.25,0.25,0],[0.5,0,0],[0.75,0.25,0],[1,0.5,0],[0.75,0.75,0],[0.5,1,0],[0.25,0.75,0],[0,0.5,0]];shape=mxgraph.bpmn.gateway2;html=1;verticalLabelPosition=bottom;labelBackgroundColor=#ffffff;verticalAlign=top;align=center;perimeter=rhombusPerimeter;outlineConnect=0;outline=none;symbol=none;" vertex="1" parent="WIyWlLk6GJQsqaUBKTNV-1">
          <mxGeometry x="890" y="-830" width="50" height="50" as="geometry" />
        </mxCell>
        <mxCell id="Ey1h-VCYFiWWdj6kb1TC-60" value="" style="edgeStyle=orthogonalEdgeStyle;rounded=0;orthogonalLoop=1;jettySize=auto;html=1;" edge="1" parent="WIyWlLk6GJQsqaUBKTNV-1" source="Ey1h-VCYFiWWdj6kb1TC-52" target="Ey1h-VCYFiWWdj6kb1TC-62">
          <mxGeometry relative="1" as="geometry">
            <mxPoint x="1180" y="-990" as="targetPoint" />
          </mxGeometry>
        </mxCell>
        <mxCell id="Ey1h-VCYFiWWdj6kb1TC-52" value="" style="whiteSpace=wrap;html=1;verticalAlign=top;labelBackgroundColor=none;" vertex="1" parent="WIyWlLk6GJQsqaUBKTNV-1">
          <mxGeometry x="950" y="-1020" width="120" height="60" as="geometry" />
        </mxCell>
        <mxCell id="Ey1h-VCYFiWWdj6kb1TC-156" style="edgeStyle=orthogonalEdgeStyle;rounded=0;orthogonalLoop=1;jettySize=auto;html=1;" edge="1" parent="WIyWlLk6GJQsqaUBKTNV-1" source="Ey1h-VCYFiWWdj6kb1TC-57" target="Ey1h-VCYFiWWdj6kb1TC-155">
          <mxGeometry relative="1" as="geometry" />
        </mxCell>
        <mxCell id="Ey1h-VCYFiWWdj6kb1TC-57" value="" style="whiteSpace=wrap;html=1;verticalAlign=top;labelBackgroundColor=#ffffff;" vertex="1" parent="WIyWlLk6GJQsqaUBKTNV-1">
          <mxGeometry x="950" y="-650" width="120" height="60" as="geometry" />
        </mxCell>
        <mxCell id="Ey1h-VCYFiWWdj6kb1TC-66" value="Não" style="edgeStyle=orthogonalEdgeStyle;rounded=0;orthogonalLoop=1;jettySize=auto;html=1;" edge="1" parent="WIyWlLk6GJQsqaUBKTNV-1" source="Ey1h-VCYFiWWdj6kb1TC-62" target="Ey1h-VCYFiWWdj6kb1TC-65">
          <mxGeometry x="0.4286" y="-15" relative="1" as="geometry">
            <Array as="points">
              <mxPoint x="1205" y="-1135" />
            </Array>
            <mxPoint as="offset" />
          </mxGeometry>
        </mxCell>
        <mxCell id="Ey1h-VCYFiWWdj6kb1TC-113" value="Sim" style="edgeStyle=orthogonalEdgeStyle;rounded=0;orthogonalLoop=1;jettySize=auto;html=1;" edge="1" parent="WIyWlLk6GJQsqaUBKTNV-1" source="Ey1h-VCYFiWWdj6kb1TC-62" target="Ey1h-VCYFiWWdj6kb1TC-112">
          <mxGeometry relative="1" as="geometry">
            <Array as="points">
              <mxPoint x="1280" y="-990" />
            </Array>
          </mxGeometry>
        </mxCell>
        <mxCell id="Ey1h-VCYFiWWdj6kb1TC-202" style="edgeStyle=orthogonalEdgeStyle;rounded=0;orthogonalLoop=1;jettySize=auto;html=1;entryX=0.676;entryY=1.023;entryDx=0;entryDy=0;entryPerimeter=0;dashed=1;" edge="1" parent="WIyWlLk6GJQsqaUBKTNV-1" source="Ey1h-VCYFiWWdj6kb1TC-62" target="Ey1h-VCYFiWWdj6kb1TC-71">
          <mxGeometry relative="1" as="geometry">
            <Array as="points">
              <mxPoint x="1205" y="-1050" />
              <mxPoint x="1062" y="-1050" />
            </Array>
          </mxGeometry>
        </mxCell>
        <mxCell id="Ey1h-VCYFiWWdj6kb1TC-62" value="Todos requisitos atendidos?" style="points=[[0.25,0.25,0],[0.5,0,0],[0.75,0.25,0],[1,0.5,0],[0.75,0.75,0],[0.5,1,0],[0.25,0.75,0],[0,0.5,0]];shape=mxgraph.bpmn.gateway2;html=1;verticalLabelPosition=bottom;labelBackgroundColor=#ffffff;verticalAlign=top;align=center;perimeter=rhombusPerimeter;outlineConnect=0;outline=none;symbol=none;" vertex="1" parent="WIyWlLk6GJQsqaUBKTNV-1">
          <mxGeometry x="1180" y="-1015" width="50" height="50" as="geometry" />
        </mxCell>
        <mxCell id="Ey1h-VCYFiWWdj6kb1TC-71" value="Requisitos:&lt;br&gt;- Mês deve ser menor que data atual&lt;br&gt;- Se for forma de cálculo ImportedData, precisa de dados importados" style="whiteSpace=wrap;html=1;verticalAlign=top;labelBackgroundColor=none;fillColor=#ffe6cc;strokeColor=#d79b00;" vertex="1" parent="WIyWlLk6GJQsqaUBKTNV-1">
          <mxGeometry x="900" y="-1250" width="240" height="70" as="geometry" />
        </mxCell>
        <mxCell id="Ey1h-VCYFiWWdj6kb1TC-86" value="" style="edgeStyle=orthogonalEdgeStyle;rounded=0;orthogonalLoop=1;jettySize=auto;html=1;" edge="1" parent="WIyWlLk6GJQsqaUBKTNV-1" source="Ey1h-VCYFiWWdj6kb1TC-78" target="Ey1h-VCYFiWWdj6kb1TC-118">
          <mxGeometry relative="1" as="geometry">
            <mxPoint x="1820" y="-990" as="targetPoint" />
          </mxGeometry>
        </mxCell>
        <mxCell id="Ey1h-VCYFiWWdj6kb1TC-87" value="Sim" style="edgeLabel;html=1;align=center;verticalAlign=middle;resizable=0;points=[];" vertex="1" connectable="0" parent="Ey1h-VCYFiWWdj6kb1TC-86">
          <mxGeometry x="-0.1077" y="3" relative="1" as="geometry">
            <mxPoint as="offset" />
          </mxGeometry>
        </mxCell>
        <mxCell id="Ey1h-VCYFiWWdj6kb1TC-89" value="Não" style="edgeStyle=orthogonalEdgeStyle;rounded=0;orthogonalLoop=1;jettySize=auto;html=1;" edge="1" parent="WIyWlLk6GJQsqaUBKTNV-1" source="Ey1h-VCYFiWWdj6kb1TC-78" target="Ey1h-VCYFiWWdj6kb1TC-88">
          <mxGeometry relative="1" as="geometry" />
        </mxCell>
        <mxCell id="Ey1h-VCYFiWWdj6kb1TC-78" value="Reprocessar ou não ter relatório na cache" style="points=[[0.25,0.25,0],[0.5,0,0],[0.75,0.25,0],[1,0.5,0],[0.75,0.75,0],[0.5,1,0],[0.25,0.75,0],[0,0.5,0]];shape=mxgraph.bpmn.gateway2;html=1;verticalLabelPosition=bottom;labelBackgroundColor=#ffffff;verticalAlign=top;align=center;perimeter=rhombusPerimeter;outlineConnect=0;outline=none;symbol=none;" vertex="1" parent="WIyWlLk6GJQsqaUBKTNV-1">
          <mxGeometry x="1585" y="-1015" width="50" height="50" as="geometry" />
        </mxCell>
        <mxCell id="Ey1h-VCYFiWWdj6kb1TC-98" value="" style="edgeStyle=orthogonalEdgeStyle;rounded=0;orthogonalLoop=1;jettySize=auto;html=1;" edge="1" parent="WIyWlLk6GJQsqaUBKTNV-1" source="Ey1h-VCYFiWWdj6kb1TC-88" target="Ey1h-VCYFiWWdj6kb1TC-99">
          <mxGeometry relative="1" as="geometry">
            <mxPoint x="1609.9999999999995" y="-1210" as="targetPoint" />
          </mxGeometry>
        </mxCell>
        <mxCell id="Ey1h-VCYFiWWdj6kb1TC-88" value="Trazer relatório com dados salvos na cache do sistema" style="whiteSpace=wrap;html=1;verticalAlign=top;labelBackgroundColor=none;fillColor=#f5f5f5;fontColor=#333333;strokeColor=#666666;" vertex="1" parent="WIyWlLk6GJQsqaUBKTNV-1">
          <mxGeometry x="1550" y="-1140" width="120" height="60" as="geometry" />
        </mxCell>
        <mxCell id="Ey1h-VCYFiWWdj6kb1TC-92" value="&lt;b&gt;Parâmetros&lt;/b&gt;:&lt;br&gt;- Ativo&lt;br&gt;- Mês&lt;br&gt;- MarcarComoDefinitivo - V/F&lt;br&gt;- Reprocessar - V/F&lt;br&gt;- Forma de Cálculo: (ImportedData, Default, InternalCalculation)" style="whiteSpace=wrap;html=1;verticalAlign=top;fillColor=#ffe6cc;strokeColor=#d79b00;labelBackgroundColor=none;" vertex="1" parent="WIyWlLk6GJQsqaUBKTNV-1">
          <mxGeometry x="655" y="-680" width="220" height="120" as="geometry" />
        </mxCell>
        <mxCell id="Ey1h-VCYFiWWdj6kb1TC-96" value="" style="points=[[0.145,0.145,0],[0.5,0,0],[0.855,0.145,0],[1,0.5,0],[0.855,0.855,0],[0.5,1,0],[0.145,0.855,0],[0,0.5,0]];shape=mxgraph.bpmn.event;html=1;verticalLabelPosition=bottom;labelBackgroundColor=#ffffff;verticalAlign=top;align=center;perimeter=ellipsePerimeter;outlineConnect=0;aspect=fixed;outline=end;symbol=terminate2;fillColor=#f8cecc;strokeColor=#b85450;" vertex="1" parent="WIyWlLk6GJQsqaUBKTNV-1">
          <mxGeometry x="1585" y="-1490" width="50" height="50" as="geometry" />
        </mxCell>
        <mxCell id="Ey1h-VCYFiWWdj6kb1TC-101" value="" style="edgeStyle=orthogonalEdgeStyle;rounded=0;orthogonalLoop=1;jettySize=auto;html=1;" edge="1" parent="WIyWlLk6GJQsqaUBKTNV-1" source="Ey1h-VCYFiWWdj6kb1TC-99" target="Ey1h-VCYFiWWdj6kb1TC-100">
          <mxGeometry relative="1" as="geometry" />
        </mxCell>
        <mxCell id="Ey1h-VCYFiWWdj6kb1TC-102" value="Sim" style="edgeLabel;html=1;align=center;verticalAlign=middle;resizable=0;points=[];" vertex="1" connectable="0" parent="Ey1h-VCYFiWWdj6kb1TC-101">
          <mxGeometry x="-0.3293" y="1" relative="1" as="geometry">
            <mxPoint as="offset" />
          </mxGeometry>
        </mxCell>
        <mxCell id="Ey1h-VCYFiWWdj6kb1TC-104" value="Não" style="edgeStyle=orthogonalEdgeStyle;rounded=0;orthogonalLoop=1;jettySize=auto;html=1;" edge="1" parent="WIyWlLk6GJQsqaUBKTNV-1" source="Ey1h-VCYFiWWdj6kb1TC-99" target="Ey1h-VCYFiWWdj6kb1TC-105">
          <mxGeometry relative="1" as="geometry" />
        </mxCell>
        <mxCell id="Ey1h-VCYFiWWdj6kb1TC-99" value="Marcar como definitivo?" style="points=[[0.25,0.25,0],[0.5,0,0],[0.75,0.25,0],[1,0.5,0],[0.75,0.75,0],[0.5,1,0],[0.25,0.75,0],[0,0.5,0]];shape=mxgraph.bpmn.gateway2;html=1;verticalLabelPosition=bottom;labelBackgroundColor=#ffffff;verticalAlign=top;align=center;perimeter=rhombusPerimeter;outlineConnect=0;outline=none;symbol=none;" vertex="1" parent="WIyWlLk6GJQsqaUBKTNV-1">
          <mxGeometry x="1585" y="-1265" width="50" height="50" as="geometry" />
        </mxCell>
        <mxCell id="Ey1h-VCYFiWWdj6kb1TC-103" style="edgeStyle=orthogonalEdgeStyle;rounded=0;orthogonalLoop=1;jettySize=auto;html=1;" edge="1" parent="WIyWlLk6GJQsqaUBKTNV-1" source="Ey1h-VCYFiWWdj6kb1TC-100" target="Ey1h-VCYFiWWdj6kb1TC-105">
          <mxGeometry relative="1" as="geometry">
            <Array as="points">
              <mxPoint x="1775" y="-1370" />
            </Array>
          </mxGeometry>
        </mxCell>
        <mxCell id="Ey1h-VCYFiWWdj6kb1TC-100" value="Marcar como definitivo" style="whiteSpace=wrap;html=1;verticalAlign=top;labelBackgroundColor=none;fillColor=#f5f5f5;fontColor=#333333;strokeColor=#666666;" vertex="1" parent="WIyWlLk6GJQsqaUBKTNV-1">
          <mxGeometry x="1715" y="-1270" width="120" height="60" as="geometry" />
        </mxCell>
        <mxCell id="Ey1h-VCYFiWWdj6kb1TC-107" style="edgeStyle=orthogonalEdgeStyle;rounded=0;orthogonalLoop=1;jettySize=auto;html=1;entryX=0.5;entryY=1;entryDx=0;entryDy=0;entryPerimeter=0;" edge="1" parent="WIyWlLk6GJQsqaUBKTNV-1" source="Ey1h-VCYFiWWdj6kb1TC-105" target="Ey1h-VCYFiWWdj6kb1TC-96">
          <mxGeometry relative="1" as="geometry" />
        </mxCell>
        <mxCell id="Ey1h-VCYFiWWdj6kb1TC-105" value="Retornar relatório, PDF não será atualizado" style="whiteSpace=wrap;html=1;verticalAlign=top;labelBackgroundColor=none;fillColor=#f5f5f5;fontColor=#333333;strokeColor=#666666;" vertex="1" parent="WIyWlLk6GJQsqaUBKTNV-1">
          <mxGeometry x="1550" y="-1390" width="120" height="50" as="geometry" />
        </mxCell>
        <mxCell id="Ey1h-VCYFiWWdj6kb1TC-114" style="edgeStyle=orthogonalEdgeStyle;rounded=0;orthogonalLoop=1;jettySize=auto;html=1;" edge="1" parent="WIyWlLk6GJQsqaUBKTNV-1" source="Ey1h-VCYFiWWdj6kb1TC-112" target="Ey1h-VCYFiWWdj6kb1TC-78">
          <mxGeometry relative="1" as="geometry" />
        </mxCell>
        <mxCell id="Ey1h-VCYFiWWdj6kb1TC-112" value="Se mês do relatório for o mês atual, forçar reprocessamento" style="whiteSpace=wrap;html=1;verticalAlign=top;labelBackgroundColor=none;fillColor=#f5f5f5;fontColor=#333333;strokeColor=#666666;" vertex="1" parent="WIyWlLk6GJQsqaUBKTNV-1">
          <mxGeometry x="1360" y="-1020" width="120" height="60" as="geometry" />
        </mxCell>
        <mxCell id="Ey1h-VCYFiWWdj6kb1TC-120" style="edgeStyle=orthogonalEdgeStyle;rounded=0;orthogonalLoop=1;jettySize=auto;html=1;" edge="1" parent="WIyWlLk6GJQsqaUBKTNV-1" source="Ey1h-VCYFiWWdj6kb1TC-118" target="Ey1h-VCYFiWWdj6kb1TC-121">
          <mxGeometry relative="1" as="geometry">
            <mxPoint x="2090" y="-990" as="targetPoint" />
          </mxGeometry>
        </mxCell>
        <mxCell id="Ey1h-VCYFiWWdj6kb1TC-122" value="Sim" style="edgeLabel;html=1;align=center;verticalAlign=middle;resizable=0;points=[];" vertex="1" connectable="0" parent="Ey1h-VCYFiWWdj6kb1TC-120">
          <mxGeometry x="-0.3714" y="-2" relative="1" as="geometry">
            <mxPoint as="offset" />
          </mxGeometry>
        </mxCell>
        <mxCell id="Ey1h-VCYFiWWdj6kb1TC-126" value="" style="edgeStyle=orthogonalEdgeStyle;rounded=0;orthogonalLoop=1;jettySize=auto;html=1;" edge="1" parent="WIyWlLk6GJQsqaUBKTNV-1" source="Ey1h-VCYFiWWdj6kb1TC-118" target="Ey1h-VCYFiWWdj6kb1TC-125">
          <mxGeometry relative="1" as="geometry">
            <mxPoint x="1850" y="-1120" as="targetPoint" />
            <Array as="points">
              <mxPoint x="1860" y="-1140" />
            </Array>
          </mxGeometry>
        </mxCell>
        <mxCell id="Ey1h-VCYFiWWdj6kb1TC-127" value="Não" style="edgeLabel;html=1;align=center;verticalAlign=middle;resizable=0;points=[];" vertex="1" connectable="0" parent="Ey1h-VCYFiWWdj6kb1TC-126">
          <mxGeometry x="0.2175" y="1" relative="1" as="geometry">
            <mxPoint as="offset" />
          </mxGeometry>
        </mxCell>
        <mxCell id="Ey1h-VCYFiWWdj6kb1TC-118" value="Forma de Cálculo == InternalCalculation?" style="points=[[0.25,0.25,0],[0.5,0,0],[0.75,0.25,0],[1,0.5,0],[0.75,0.75,0],[0.5,1,0],[0.25,0.75,0],[0,0.5,0]];shape=mxgraph.bpmn.gateway2;html=1;verticalLabelPosition=bottom;labelBackgroundColor=#ffffff;verticalAlign=top;align=center;perimeter=rhombusPerimeter;outlineConnect=0;outline=none;symbol=none;" vertex="1" parent="WIyWlLk6GJQsqaUBKTNV-1">
          <mxGeometry x="1835" y="-1015" width="50" height="50" as="geometry" />
        </mxCell>
        <mxCell id="Ey1h-VCYFiWWdj6kb1TC-130" style="edgeStyle=orthogonalEdgeStyle;rounded=0;orthogonalLoop=1;jettySize=auto;html=1;" edge="1" parent="WIyWlLk6GJQsqaUBKTNV-1" source="Ey1h-VCYFiWWdj6kb1TC-121" target="Ey1h-VCYFiWWdj6kb1TC-128">
          <mxGeometry relative="1" as="geometry" />
        </mxCell>
        <mxCell id="Ey1h-VCYFiWWdj6kb1TC-194" style="edgeStyle=orthogonalEdgeStyle;rounded=0;orthogonalLoop=1;jettySize=auto;html=1;dashed=1;" edge="1" parent="WIyWlLk6GJQsqaUBKTNV-1" source="Ey1h-VCYFiWWdj6kb1TC-121" target="Ey1h-VCYFiWWdj6kb1TC-193">
          <mxGeometry relative="1" as="geometry" />
        </mxCell>
        <mxCell id="Ey1h-VCYFiWWdj6kb1TC-121" value="Cálcular relatório" style="whiteSpace=wrap;html=1;verticalAlign=top;labelBackgroundColor=none;fillColor=#f5f5f5;fontColor=#333333;strokeColor=#666666;" vertex="1" parent="WIyWlLk6GJQsqaUBKTNV-1">
          <mxGeometry x="1970" y="-1010" width="120" height="40" as="geometry" />
        </mxCell>
        <mxCell id="Ey1h-VCYFiWWdj6kb1TC-129" style="edgeStyle=orthogonalEdgeStyle;rounded=0;orthogonalLoop=1;jettySize=auto;html=1;entryX=0.502;entryY=0.021;entryDx=0;entryDy=0;entryPerimeter=0;" edge="1" parent="WIyWlLk6GJQsqaUBKTNV-1" source="Ey1h-VCYFiWWdj6kb1TC-125" target="Ey1h-VCYFiWWdj6kb1TC-131">
          <mxGeometry relative="1" as="geometry" />
        </mxCell>
        <mxCell id="Ey1h-VCYFiWWdj6kb1TC-125" value="Cálcular utilizando gastos importados" style="whiteSpace=wrap;html=1;verticalAlign=top;labelBackgroundColor=none;fillColor=#f5f5f5;fontColor=#333333;strokeColor=#666666;" vertex="1" parent="WIyWlLk6GJQsqaUBKTNV-1">
          <mxGeometry x="2050" y="-1169" width="120" height="60" as="geometry" />
        </mxCell>
        <mxCell id="Ey1h-VCYFiWWdj6kb1TC-132" style="edgeStyle=orthogonalEdgeStyle;rounded=0;orthogonalLoop=1;jettySize=auto;html=1;" edge="1" parent="WIyWlLk6GJQsqaUBKTNV-1" source="Ey1h-VCYFiWWdj6kb1TC-128" target="Ey1h-VCYFiWWdj6kb1TC-131">
          <mxGeometry relative="1" as="geometry" />
        </mxCell>
        <mxCell id="Ey1h-VCYFiWWdj6kb1TC-196" style="edgeStyle=orthogonalEdgeStyle;rounded=0;orthogonalLoop=1;jettySize=auto;html=1;dashed=1;" edge="1" parent="WIyWlLk6GJQsqaUBKTNV-1" source="Ey1h-VCYFiWWdj6kb1TC-128" target="Ey1h-VCYFiWWdj6kb1TC-195">
          <mxGeometry relative="1" as="geometry" />
        </mxCell>
        <mxCell id="Ey1h-VCYFiWWdj6kb1TC-128" value="Se dados necessário importados, marcar como relatório completo" style="whiteSpace=wrap;html=1;verticalAlign=top;labelBackgroundColor=none;fillColor=#f5f5f5;fontColor=#333333;strokeColor=#666666;" vertex="1" parent="WIyWlLk6GJQsqaUBKTNV-1">
          <mxGeometry x="2170" y="-1025" width="120" height="70" as="geometry" />
        </mxCell>
        <mxCell id="Ey1h-VCYFiWWdj6kb1TC-197" style="edgeStyle=orthogonalEdgeStyle;rounded=0;orthogonalLoop=1;jettySize=auto;html=1;" edge="1" parent="WIyWlLk6GJQsqaUBKTNV-1" source="Ey1h-VCYFiWWdj6kb1TC-131" target="Ey1h-VCYFiWWdj6kb1TC-139">
          <mxGeometry relative="1" as="geometry" />
        </mxCell>
        <mxCell id="Ey1h-VCYFiWWdj6kb1TC-131" value="Se marcar como relatório definitivo, marca como relatório definitivo" style="whiteSpace=wrap;html=1;verticalAlign=top;labelBackgroundColor=none;fillColor=#f5f5f5;fontColor=#333333;strokeColor=#666666;" vertex="1" parent="WIyWlLk6GJQsqaUBKTNV-1">
          <mxGeometry x="2300" y="-1100" width="120" height="70" as="geometry" />
        </mxCell>
        <mxCell id="Ey1h-VCYFiWWdj6kb1TC-198" style="edgeStyle=orthogonalEdgeStyle;rounded=0;orthogonalLoop=1;jettySize=auto;html=1;" edge="1" parent="WIyWlLk6GJQsqaUBKTNV-1" source="Ey1h-VCYFiWWdj6kb1TC-139" target="Ey1h-VCYFiWWdj6kb1TC-184">
          <mxGeometry relative="1" as="geometry">
            <mxPoint x="2570" y="-830" as="targetPoint" />
            <Array as="points">
              <mxPoint x="2570" y="-645" />
            </Array>
          </mxGeometry>
        </mxCell>
        <mxCell id="Ey1h-VCYFiWWdj6kb1TC-139" value="Salvar relatório na cache do sistema para ter acesso mais rápido" style="whiteSpace=wrap;html=1;verticalAlign=top;labelBackgroundColor=none;fillColor=#f5f5f5;fontColor=#333333;strokeColor=#666666;" vertex="1" parent="WIyWlLk6GJQsqaUBKTNV-1">
          <mxGeometry x="2510" y="-1100" width="120" height="70" as="geometry" />
        </mxCell>
        <mxCell id="Ey1h-VCYFiWWdj6kb1TC-158" style="edgeStyle=orthogonalEdgeStyle;rounded=0;orthogonalLoop=1;jettySize=auto;html=1;" edge="1" parent="WIyWlLk6GJQsqaUBKTNV-1" source="Ey1h-VCYFiWWdj6kb1TC-155" target="Ey1h-VCYFiWWdj6kb1TC-159">
          <mxGeometry relative="1" as="geometry">
            <mxPoint x="1210" y="-440" as="targetPoint" />
          </mxGeometry>
        </mxCell>
        <mxCell id="Ey1h-VCYFiWWdj6kb1TC-160" value="Não" style="edgeLabel;html=1;align=center;verticalAlign=middle;resizable=0;points=[];" vertex="1" connectable="0" parent="Ey1h-VCYFiWWdj6kb1TC-158">
          <mxGeometry x="0.1235" y="-2" relative="1" as="geometry">
            <mxPoint as="offset" />
          </mxGeometry>
        </mxCell>
        <mxCell id="Ey1h-VCYFiWWdj6kb1TC-162" value="" style="edgeStyle=orthogonalEdgeStyle;rounded=0;orthogonalLoop=1;jettySize=auto;html=1;" edge="1" parent="WIyWlLk6GJQsqaUBKTNV-1" source="Ey1h-VCYFiWWdj6kb1TC-155" target="Ey1h-VCYFiWWdj6kb1TC-163">
          <mxGeometry relative="1" as="geometry">
            <mxPoint x="1320" y="-620" as="targetPoint" />
            <Array as="points">
              <mxPoint x="1260" y="-645" />
              <mxPoint x="1260" y="-645" />
            </Array>
          </mxGeometry>
        </mxCell>
        <mxCell id="Ey1h-VCYFiWWdj6kb1TC-155" value="Dados importados E medições no sistema?" style="points=[[0.25,0.25,0],[0.5,0,0],[0.75,0.25,0],[1,0.5,0],[0.75,0.75,0],[0.5,1,0],[0.25,0.75,0],[0,0.5,0]];shape=mxgraph.bpmn.gateway2;html=1;verticalLabelPosition=bottom;labelBackgroundColor=#ffffff;verticalAlign=top;align=center;perimeter=rhombusPerimeter;outlineConnect=0;outline=none;symbol=none;" vertex="1" parent="WIyWlLk6GJQsqaUBKTNV-1">
          <mxGeometry x="1180" y="-645" width="50" height="50" as="geometry" />
        </mxCell>
        <mxCell id="Ey1h-VCYFiWWdj6kb1TC-159" value="Gerar erro" style="points=[[0.145,0.145,0],[0.5,0,0],[0.855,0.145,0],[1,0.5,0],[0.855,0.855,0],[0.5,1,0],[0.145,0.855,0],[0,0.5,0]];shape=mxgraph.bpmn.event;html=1;verticalLabelPosition=bottom;labelBackgroundColor=#ffffff;verticalAlign=top;align=center;perimeter=ellipsePerimeter;outlineConnect=0;aspect=fixed;outline=end;symbol=terminate2;fillColor=#f8cecc;strokeColor=#b85450;" vertex="1" parent="WIyWlLk6GJQsqaUBKTNV-1">
          <mxGeometry x="1180" y="-460" width="50" height="50" as="geometry" />
        </mxCell>
        <mxCell id="Ey1h-VCYFiWWdj6kb1TC-173" style="edgeStyle=orthogonalEdgeStyle;rounded=0;orthogonalLoop=1;jettySize=auto;html=1;exitX=0.5;exitY=1;exitDx=0;exitDy=0;exitPerimeter=0;" edge="1" parent="WIyWlLk6GJQsqaUBKTNV-1" source="Ey1h-VCYFiWWdj6kb1TC-163" target="Ey1h-VCYFiWWdj6kb1TC-166">
          <mxGeometry relative="1" as="geometry" />
        </mxCell>
        <mxCell id="Ey1h-VCYFiWWdj6kb1TC-175" value="Não" style="edgeLabel;html=1;align=center;verticalAlign=middle;resizable=0;points=[];" vertex="1" connectable="0" parent="Ey1h-VCYFiWWdj6kb1TC-173">
          <mxGeometry x="-0.1773" y="2" relative="1" as="geometry">
            <mxPoint as="offset" />
          </mxGeometry>
        </mxCell>
        <mxCell id="Ey1h-VCYFiWWdj6kb1TC-177" style="edgeStyle=orthogonalEdgeStyle;rounded=0;orthogonalLoop=1;jettySize=auto;html=1;" edge="1" parent="WIyWlLk6GJQsqaUBKTNV-1" source="Ey1h-VCYFiWWdj6kb1TC-163" target="Ey1h-VCYFiWWdj6kb1TC-178">
          <mxGeometry relative="1" as="geometry">
            <mxPoint x="1590" y="-640" as="targetPoint" />
            <Array as="points" />
          </mxGeometry>
        </mxCell>
        <mxCell id="Ey1h-VCYFiWWdj6kb1TC-163" value="Reprocessar ou não ter relatório na cache" style="points=[[0.25,0.25,0],[0.5,0,0],[0.75,0.25,0],[1,0.5,0],[0.75,0.75,0],[0.5,1,0],[0.25,0.75,0],[0,0.5,0]];shape=mxgraph.bpmn.gateway2;html=1;verticalLabelPosition=bottom;labelBackgroundColor=#ffffff;verticalAlign=top;align=center;perimeter=rhombusPerimeter;outlineConnect=0;outline=none;symbol=none;" vertex="1" parent="WIyWlLk6GJQsqaUBKTNV-1">
          <mxGeometry x="1350" y="-670" width="50" height="50" as="geometry" />
        </mxCell>
        <mxCell id="Ey1h-VCYFiWWdj6kb1TC-174" style="edgeStyle=orthogonalEdgeStyle;rounded=0;orthogonalLoop=1;jettySize=auto;html=1;" edge="1" parent="WIyWlLk6GJQsqaUBKTNV-1" source="Ey1h-VCYFiWWdj6kb1TC-166" target="Ey1h-VCYFiWWdj6kb1TC-172">
          <mxGeometry relative="1" as="geometry" />
        </mxCell>
        <mxCell id="Ey1h-VCYFiWWdj6kb1TC-166" value="Trazer relatório com dados salvos na cache do sistema" style="whiteSpace=wrap;html=1;verticalAlign=top;labelBackgroundColor=none;fillColor=#f5f5f5;fontColor=#333333;strokeColor=#666666;" vertex="1" parent="WIyWlLk6GJQsqaUBKTNV-1">
          <mxGeometry x="1315" y="-500" width="120" height="60" as="geometry" />
        </mxCell>
        <mxCell id="Ey1h-VCYFiWWdj6kb1TC-167" value="" style="points=[[0.145,0.145,0],[0.5,0,0],[0.855,0.145,0],[1,0.5,0],[0.855,0.855,0],[0.5,1,0],[0.145,0.855,0],[0,0.5,0]];shape=mxgraph.bpmn.event;html=1;verticalLabelPosition=bottom;labelBackgroundColor=#ffffff;verticalAlign=top;align=center;perimeter=ellipsePerimeter;outlineConnect=0;aspect=fixed;outline=end;symbol=terminate2;fillColor=#f8cecc;strokeColor=#b85450;" vertex="1" parent="WIyWlLk6GJQsqaUBKTNV-1">
          <mxGeometry x="1350" y="-270" width="50" height="50" as="geometry" />
        </mxCell>
        <mxCell id="Ey1h-VCYFiWWdj6kb1TC-171" style="edgeStyle=orthogonalEdgeStyle;rounded=0;orthogonalLoop=1;jettySize=auto;html=1;entryX=0.5;entryY=0;entryDx=0;entryDy=0;entryPerimeter=0;" edge="1" parent="WIyWlLk6GJQsqaUBKTNV-1" source="Ey1h-VCYFiWWdj6kb1TC-172" target="Ey1h-VCYFiWWdj6kb1TC-167">
          <mxGeometry relative="1" as="geometry" />
        </mxCell>
        <mxCell id="Ey1h-VCYFiWWdj6kb1TC-172" value="Retornar relatório, PDF não será atualizado" style="whiteSpace=wrap;html=1;verticalAlign=top;labelBackgroundColor=none;fillColor=#f5f5f5;fontColor=#333333;strokeColor=#666666;" vertex="1" parent="WIyWlLk6GJQsqaUBKTNV-1">
          <mxGeometry x="1315" y="-380" width="120" height="50" as="geometry" />
        </mxCell>
        <mxCell id="Ey1h-VCYFiWWdj6kb1TC-181" style="edgeStyle=orthogonalEdgeStyle;rounded=0;orthogonalLoop=1;jettySize=auto;html=1;" edge="1" parent="WIyWlLk6GJQsqaUBKTNV-1" source="Ey1h-VCYFiWWdj6kb1TC-178" target="Ey1h-VCYFiWWdj6kb1TC-180">
          <mxGeometry relative="1" as="geometry" />
        </mxCell>
        <mxCell id="Ey1h-VCYFiWWdj6kb1TC-178" value="Calcular utilizando gastos importados" style="whiteSpace=wrap;html=1;verticalAlign=top;labelBackgroundColor=none;fillColor=#f5f5f5;fontColor=#333333;strokeColor=#666666;" vertex="1" parent="WIyWlLk6GJQsqaUBKTNV-1">
          <mxGeometry x="1550" y="-665" width="120" height="40" as="geometry" />
        </mxCell>
        <mxCell id="Ey1h-VCYFiWWdj6kb1TC-183" style="edgeStyle=orthogonalEdgeStyle;rounded=0;orthogonalLoop=1;jettySize=auto;html=1;" edge="1" parent="WIyWlLk6GJQsqaUBKTNV-1" source="Ey1h-VCYFiWWdj6kb1TC-180" target="Ey1h-VCYFiWWdj6kb1TC-182">
          <mxGeometry relative="1" as="geometry" />
        </mxCell>
        <mxCell id="Ey1h-VCYFiWWdj6kb1TC-180" value="Marcar como definitivo" style="whiteSpace=wrap;html=1;verticalAlign=top;labelBackgroundColor=none;fillColor=#f5f5f5;fontColor=#333333;strokeColor=#666666;" vertex="1" parent="WIyWlLk6GJQsqaUBKTNV-1">
          <mxGeometry x="1720" y="-665" width="120" height="40" as="geometry" />
        </mxCell>
        <mxCell id="Ey1h-VCYFiWWdj6kb1TC-185" style="edgeStyle=orthogonalEdgeStyle;rounded=0;orthogonalLoop=1;jettySize=auto;html=1;" edge="1" parent="WIyWlLk6GJQsqaUBKTNV-1" source="Ey1h-VCYFiWWdj6kb1TC-182" target="Ey1h-VCYFiWWdj6kb1TC-184">
          <mxGeometry relative="1" as="geometry" />
        </mxCell>
        <mxCell id="Ey1h-VCYFiWWdj6kb1TC-182" value="Salvar relatório na cache do sistema" style="whiteSpace=wrap;html=1;verticalAlign=top;labelBackgroundColor=none;fillColor=#f5f5f5;fontColor=#333333;strokeColor=#666666;" vertex="1" parent="WIyWlLk6GJQsqaUBKTNV-1">
          <mxGeometry x="1890" y="-665" width="120" height="40" as="geometry" />
        </mxCell>
        <mxCell id="Ey1h-VCYFiWWdj6kb1TC-187" style="edgeStyle=orthogonalEdgeStyle;rounded=0;orthogonalLoop=1;jettySize=auto;html=1;" edge="1" parent="WIyWlLk6GJQsqaUBKTNV-1" source="Ey1h-VCYFiWWdj6kb1TC-184" target="Ey1h-VCYFiWWdj6kb1TC-188">
          <mxGeometry relative="1" as="geometry">
            <mxPoint x="2190" y="-644.9473684210525" as="targetPoint" />
          </mxGeometry>
        </mxCell>
        <mxCell id="Ey1h-VCYFiWWdj6kb1TC-184" value="Retornar relatório, se for cliente interno irá gerar PDF ao abrir na tela" style="whiteSpace=wrap;html=1;verticalAlign=top;labelBackgroundColor=none;fillColor=#f5f5f5;fontColor=#333333;strokeColor=#666666;" vertex="1" parent="WIyWlLk6GJQsqaUBKTNV-1">
          <mxGeometry x="2280" y="-677.5" width="120" height="65" as="geometry" />
        </mxCell>
        <mxCell id="Ey1h-VCYFiWWdj6kb1TC-188" value="" style="points=[[0.145,0.145,0],[0.5,0,0],[0.855,0.145,0],[1,0.5,0],[0.855,0.855,0],[0.5,1,0],[0.145,0.855,0],[0,0.5,0]];shape=mxgraph.bpmn.event;html=1;verticalLabelPosition=bottom;labelBackgroundColor=#ffffff;verticalAlign=top;align=center;perimeter=ellipsePerimeter;outlineConnect=0;aspect=fixed;outline=end;symbol=terminate2;fillColor=#f8cecc;strokeColor=#b85450;" vertex="1" parent="WIyWlLk6GJQsqaUBKTNV-1">
          <mxGeometry x="2315" y="-537" width="50" height="50" as="geometry" />
        </mxCell>
        <mxCell id="Ey1h-VCYFiWWdj6kb1TC-193" value="&lt;b&gt;Informações necessárias:&lt;/b&gt;&lt;br&gt;- Dado em controle nota fiscal&lt;br&gt;- Devec&lt;br&gt;- Planilha Mínima/Preview&lt;br&gt;- Opção imposto do ativo&lt;br&gt;- Tarifas da distribuidora&lt;br&gt;- Impostos da distribuidora" style="whiteSpace=wrap;html=1;verticalAlign=top;labelBackgroundColor=none;fillColor=#ffe6cc;strokeColor=#d79b00;" vertex="1" parent="WIyWlLk6GJQsqaUBKTNV-1">
          <mxGeometry x="1945" y="-880" width="170" height="110" as="geometry" />
        </mxCell>
        <mxCell id="Ey1h-VCYFiWWdj6kb1TC-195" value="&lt;b&gt;Dados necessários:&lt;br&gt;- &lt;/b&gt;Devec&lt;br&gt;- Dado em controle nota fiscal&lt;br&gt;- Planilha Mínima/Preview&lt;br&gt;" style="whiteSpace=wrap;html=1;verticalAlign=top;labelBackgroundColor=none;fillColor=#ffe6cc;strokeColor=#d79b00;" vertex="1" parent="WIyWlLk6GJQsqaUBKTNV-1">
          <mxGeometry x="2140" y="-847.5" width="180" height="70" as="geometry" />
        </mxCell>
        <mxCell id="Ey1h-VCYFiWWdj6kb1TC-65" value="" style="points=[[0.145,0.145,0],[0.5,0,0],[0.855,0.145,0],[1,0.5,0],[0.855,0.855,0],[0.5,1,0],[0.145,0.855,0],[0,0.5,0]];shape=mxgraph.bpmn.event;html=1;verticalLabelPosition=bottom;labelBackgroundColor=#ffffff;verticalAlign=top;align=center;perimeter=ellipsePerimeter;outlineConnect=0;aspect=fixed;outline=end;symbol=terminate2;fillColor=#f8cecc;strokeColor=#b85450;" vertex="1" parent="WIyWlLk6GJQsqaUBKTNV-1">
          <mxGeometry x="1180" y="-1170" width="50" height="50" as="geometry" />
        </mxCell>
        <mxCell id="Ey1h-VCYFiWWdj6kb1TC-201" value="" style="edgeStyle=orthogonalEdgeStyle;rounded=0;orthogonalLoop=1;jettySize=auto;html=1;dashed=1;endArrow=none;" edge="1" parent="WIyWlLk6GJQsqaUBKTNV-1" source="Ey1h-VCYFiWWdj6kb1TC-62" target="Ey1h-VCYFiWWdj6kb1TC-65">
          <mxGeometry relative="1" as="geometry">
            <mxPoint x="1205" y="-1015" as="sourcePoint" />
            <mxPoint x="1205" y="-1220" as="targetPoint" />
          </mxGeometry>
        </mxCell>
        <mxCell id="Ey1h-VCYFiWWdj6kb1TC-203" value="Importação e Geração de Relatórios pela página de lista de relatórios" style="text;html=1;align=center;verticalAlign=middle;resizable=0;points=[];autosize=1;strokeColor=none;fillColor=none;fontSize=48;fontStyle=1;labelBackgroundColor=#42FF1C;" vertex="1" parent="WIyWlLk6GJQsqaUBKTNV-1">
          <mxGeometry x="-450" y="-1540" width="1600" height="70" as="geometry" />
        </mxCell>
        <mxCell id="Ey1h-VCYFiWWdj6kb1TC-216" style="edgeStyle=orthogonalEdgeStyle;rounded=0;orthogonalLoop=1;jettySize=auto;html=1;fontSize=12;" edge="1" parent="WIyWlLk6GJQsqaUBKTNV-1" source="Ey1h-VCYFiWWdj6kb1TC-214" target="Ey1h-VCYFiWWdj6kb1TC-217">
          <mxGeometry relative="1" as="geometry">
            <mxPoint x="-159.99999999999977" y="95" as="targetPoint" />
          </mxGeometry>
        </mxCell>
        <mxCell id="Ey1h-VCYFiWWdj6kb1TC-214" value="Página de envio de relatórios acessada" style="points=[[0.145,0.145,0],[0.5,0,0],[0.855,0.145,0],[1,0.5,0],[0.855,0.855,0],[0.5,1,0],[0.145,0.855,0],[0,0.5,0]];shape=mxgraph.bpmn.event;html=1;verticalLabelPosition=bottom;labelBackgroundColor=#ffffff;verticalAlign=top;align=center;perimeter=ellipsePerimeter;outlineConnect=0;aspect=fixed;outline=throwing;symbol=general;strokeWidth=1;fontSize=12;fillColor=#d5e8d4;strokeColor=#82b366;" vertex="1" parent="WIyWlLk6GJQsqaUBKTNV-1">
          <mxGeometry x="-413" y="60" width="50" height="50" as="geometry" />
        </mxCell>
        <mxCell id="Ey1h-VCYFiWWdj6kb1TC-217" value="" style="rounded=0;whiteSpace=wrap;html=1;labelBackgroundColor=#42FF1C;strokeWidth=1;fontSize=12;" vertex="1" parent="WIyWlLk6GJQsqaUBKTNV-1">
          <mxGeometry x="-180" y="55" width="120" height="60" as="geometry" />
        </mxCell>
        <mxCell id="Ey1h-VCYFiWWdj6kb1TC-218" value="&lt;b&gt;Dados importados:&lt;/b&gt;&lt;br&gt;- Ponto&lt;br&gt;- Mês&lt;br&gt;- Custos CCEE&lt;br&gt;- Gestão&lt;br&gt;- Desconto Energia Incentivada&lt;br&gt;&lt;br&gt;MCP, ESS e Rateio serão armazenados como gastos do mês anterior" style="whiteSpace=wrap;html=1;verticalAlign=top;fillColor=#ffe6cc;strokeColor=#d79b00;labelBackgroundColor=none;" vertex="1" parent="WIyWlLk6GJQsqaUBKTNV-1">
          <mxGeometry x="-140" y="-1220" width="230" height="150" as="geometry" />
        </mxCell>
      </root>
    </mxGraphModel>
  </diagram>
</mxfile>
